<?xml version="1.0" encoding="UTF-8" standalone="no"?><!DOCTYPE svg PUBLIC "-//W3C//DTD SVG 1.1//EN" "http://www.w3.org/Graphics/SVG/1.1/DTD/svg11.dtd"><svg width="100%" height="100%" viewBox="0 0 1024 1024" version="1.1" xmlns="http://www.w3.org/2000/svg" xmlns:xlink="http://www.w3.org/1999/xlink" xml:space="preserve" xmlns:serif="http://www.serif.com/" style="fill-rule:evenodd;clip-rule:evenodd;stroke-linejoin:round;stroke-miterlimit:2;"><path d="M1024,256c0,-67.895 -26.971,-133.01 -74.981,-181.019c-48.009,-48.01 -113.124,-74.981 -181.019,-74.981l-512,0c-67.895,0 -133.01,26.971 -181.019,74.981c-48.01,48.009 -74.981,113.124 -74.981,181.019l0,512c0,67.895 26.971,133.01 74.981,181.019c48.009,48.01 113.124,74.981 181.019,74.981l512,0c67.895,0 133.01,-26.971 181.019,-74.981c48.01,-48.009 74.981,-113.124 74.981,-181.019l0,-512Z" style="fill:#526636;"/><g><rect x="725.908" y="152" width="144" height="720" style="fill:#ebebeb;"/><rect x="545.908" y="152" width="144" height="720" style="fill:#ebebeb;"/><rect x="365.908" y="152" width="144" height="720" style="fill:#ebebeb;"/><rect x="185.908" y="152" width="144" height="720" style="fill:#ebebeb;"/><path d="M86.908,467l-86.908,1l0,90l86.908,-1l0,36l81,0l0,-12l822,0l0,-138l-822,0l0,-12l-81,0l0,36Z" style="fill:#ebebeb;"/><rect x="887.908" y="416" width="84" height="192" style="fill:#ebebeb;"/></g></svg>